<?xml version="1.0" encoding="UTF-8" standalone="no"?>
<!DOCTYPE svg PUBLIC "-//W3C//DTD SVG 1.1//EN" "http://www.w3.org/Graphics/SVG/1.1/DTD/svg11.dtd">
<!-- Created with Vectornator (http://vectornator.io/) -->
<svg height="100%" stroke-miterlimit="10" style="fill-rule:nonzero;clip-rule:evenodd;stroke-linecap:round;stroke-linejoin:round;" version="1.1" viewBox="0 0 250 250" width="100%" xml:space="preserve" xmlns="http://www.w3.org/2000/svg" xmlns:vectornator="http://vectornator.io" xmlns:xlink="http://www.w3.org/1999/xlink">
<defs/>
<g id="g879" vectornator:layerName="g879">
<path d="M125 30L125 30L125 30L31.9 63.2L46.1 186.3L125 230L125 230L125 230L203.9 186.3L218.1 63.2L125 30Z" fill="#9d449d" fill-rule="nonzero" opacity="1" stroke="none" vectornator:layerName="polygon"/>
<path d="M125 30L125 52.2L125 52.1L125 153.4L125 153.4L125 230L125 230L203.9 186.3L218.1 63.2L125 30Z" fill="#6e2c6e" fill-rule="nonzero" opacity="1" stroke="none" vectornator:layerName="polygon"/>
<path d="M179.965 174.839L173.627 164.859L179.777 157.925C180.238 157.404 180.389 156.677 180.173 156.016C179.956 155.355 179.404 154.858 178.724 154.712L146.491 147.776L157.375 145.372C157.668 145.308 157.946 145.182 158.186 144.989C158.645 144.617 158.913 144.057 158.913 143.465L158.913 124.202C158.913 123.28 158.269 122.482 157.367 122.288L140.219 118.598L140.219 103.699L142.758 103.699C146.317 103.699 149.212 100.804 149.212 97.2457C149.212 93.6872 146.317 90.7922 142.758 90.7922L135.011 90.7922L135.011 55.1746C137.409 54.6705 139.216 52.5398 139.216 49.994C139.215 47.0745 136.84 44.6995 133.921 44.6995L116.078 44.6995C113.159 44.6995 110.784 47.0745 110.784 49.994C110.784 52.5398 112.59 54.6705 114.989 55.1746L114.989 90.7918L107.241 90.7918C103.683 90.7918 100.788 93.6868 100.788 97.2453C100.788 100.804 103.683 103.699 107.241 103.699L109.778 103.699L109.778 112.047L72.0995 103.94C71.3281 103.773 70.5322 104.087 70.0812 104.735C69.6302 105.382 69.6121 106.237 70.0353 106.903L76.3735 116.883L70.2233 123.818C69.7616 124.339 69.6107 125.065 69.8274 125.726C70.0442 126.388 70.5956 126.884 71.2758 127.031L103.509 133.967L92.6232 136.367C92.331 136.431 92.0533 136.561 91.8145 136.754C91.3546 137.126 91.0869 137.685 91.0869 138.277L91.0869 157.54C91.0869 158.463 91.7308 159.26 92.6328 159.454L109.778 163.144L109.778 193.285C109.778 193.669 109.891 194.044 110.103 194.365L123.366 214.423C123.728 214.971 124.342 215.3 124.999 215.3C125.656 215.3 126.269 214.971 126.632 214.423L139.895 194.365C140.107 194.044 140.219 193.669 140.219 193.285L140.219 169.694L177.9 177.802C178.038 177.832 178.175 177.846 178.312 177.846C178.944 177.846 179.548 177.54 179.918 177.007C180.37 176.36 180.388 175.505 179.965 174.839ZM109.777 139.875L102.246 138.254L109.777 136.596L109.777 139.875ZM113.692 136.158L123.041 138.17L123.041 142.73L113.692 140.718L113.692 136.158ZM126.957 139.012L136.302 141.024L136.302 145.583L126.957 143.572C126.957 143.572 126.957 139.012 126.957 139.012ZM140.218 141.866L147.754 143.488L140.218 145.148L140.218 141.866ZM136.304 117.755L126.957 115.744L126.957 103.699L136.304 103.699L136.304 117.755ZM131.095 74.9977L118.904 74.9977L118.904 71.0826L131.095 71.0826L131.095 74.9977ZM131.095 67.1671L118.904 67.1671L118.904 63.2519L131.095 63.2519L131.095 67.1671ZM131.095 59.3364L118.904 59.3364L118.904 55.2885L131.095 55.2885L131.095 59.3364ZM118.904 78.9133L131.095 78.9133L131.095 82.8284L118.904 82.8284L118.904 78.9133ZM116.078 48.615L133.921 48.615C134.681 48.615 135.3 49.2337 135.3 49.994C135.3 50.7543 134.681 51.373 133.921 51.373L133.053 51.373L116.946 51.373L116.079 51.373C115.318 51.373 114.7 50.7543 114.7 49.994C114.7 49.2337 115.318 48.615 116.078 48.615ZM118.904 86.7439L131.095 86.7439L131.095 90.7918L118.904 90.7918L118.904 86.7439ZM104.703 97.2457C104.703 95.8461 105.842 94.7077 107.241 94.7077L142.758 94.7077C144.158 94.7077 145.296 95.8464 145.296 97.2457C145.296 98.6449 144.157 99.7836 142.758 99.7836L107.241 99.7836C105.842 99.7836 104.703 98.6449 104.703 97.2457ZM113.694 103.699L123.041 103.699L123.041 114.902L113.694 112.89L113.694 103.699ZM80.2815 118.377C80.861 117.724 80.9375 116.766 80.4694 116.029L75.8474 108.751L154.998 125.783L154.998 141.041L75.3764 123.908L80.2815 118.377ZM113.694 163.986L123.041 165.998L123.041 206.833L113.694 192.696L113.694 163.986ZM136.304 192.696L126.957 206.832L126.957 166.84L136.304 168.852L136.304 192.696ZM95.0024 155.959L95.0024 140.701L174.623 157.834L169.719 163.365C169.139 164.018 169.063 164.976 169.531 165.713L174.153 172.991L95.0024 155.959Z" fill="#ffc75f" fill-rule="nonzero" opacity="1" stroke="none" vectornator:layerName="path"/>
</g>
</svg>
